<svg width="122" height="122" viewBox="0 0 122 122" fill="none" xmlns="http://www.w3.org/2000/svg">
<g clip-path="url(#clip0_9317_83)">
<path fill-rule="evenodd" clip-rule="evenodd" d="M59.9239 6.77284e-07C54.193 6.77284e-07 49.2943 4.148 48.3495 9.80379L47.7802 13.2386C47.6224 14.1007 47.2404 14.9062 46.6726 15.5739C46.1048 16.2417 45.3712 16.7481 44.5456 17.0425C43.5347 17.4206 42.5373 17.8338 41.5551 18.2812C40.763 18.6578 39.8856 18.8191 39.0113 18.7488C38.1371 18.6785 37.2968 18.3791 36.575 17.8808L33.7408 15.8537C31.481 14.2392 28.7215 13.4788 25.9537 13.708C23.1858 13.9371 20.5889 15.1409 18.6253 17.105L17.105 18.6253C15.1409 20.5889 13.9371 23.1858 13.708 25.9537C13.4788 28.7215 14.2392 31.481 15.8537 33.7408L17.8808 36.575C18.3791 37.2968 18.6785 38.1371 18.7488 39.0113C18.8191 39.8856 18.6578 40.763 18.2812 41.5551C17.8338 42.5373 17.4206 43.5347 17.0425 44.5456C16.7481 45.3712 16.2417 46.1048 15.5739 46.6726C14.9062 47.2404 14.1007 47.6224 13.2386 47.7802L9.79754 48.3558C7.05984 48.8132 4.57303 50.2266 2.77915 52.3447C0.985269 54.4627 0.000537572 57.1483 0 59.9239V62.0761C0 67.807 4.148 72.7057 9.80379 73.6505L13.2386 74.2198C14.9966 74.5138 16.4168 75.7839 17.0425 77.4544C17.4178 78.4679 17.837 79.4627 18.2812 80.4449C18.6578 81.237 18.8191 82.1144 18.7488 82.9887C18.6785 83.8629 18.3791 84.7032 17.8808 85.425L15.8537 88.2592C14.2392 90.519 13.4788 93.2784 13.708 96.0463C13.9371 98.8142 15.1409 101.411 17.105 103.375L18.6253 104.895C22.6795 108.949 29.0735 109.481 33.7408 106.146L36.575 104.119C37.2968 103.621 38.1371 103.322 39.0113 103.251C39.8856 103.181 40.763 103.342 41.5551 103.719C42.5373 104.163 43.5321 104.576 44.5456 104.958C46.2161 105.583 47.4862 107.003 47.7802 108.761L48.3558 112.202C49.2943 117.852 54.1868 122 59.9239 122H62.0761C67.807 122 72.7057 117.852 73.6505 112.196L74.2198 108.761C74.3776 107.899 74.7596 107.094 75.3274 106.426C75.8952 105.758 76.6288 105.252 77.4544 104.958C78.4651 104.579 79.4626 104.166 80.4449 103.719C81.237 103.342 82.1144 103.181 82.9887 103.251C83.8629 103.322 84.7032 103.621 85.425 104.119L88.2592 106.146C90.519 107.761 93.2784 108.521 96.0463 108.292C98.8142 108.063 101.411 106.859 103.375 104.895L104.895 103.375C108.949 99.3205 109.481 92.9265 106.146 88.2592L104.119 85.425C103.621 84.7032 103.322 83.8629 103.251 82.9887C103.181 82.1144 103.342 81.237 103.719 80.4449C104.163 79.4627 104.576 78.4679 104.958 77.4544C105.583 75.7839 107.003 74.5138 108.761 74.2198L112.202 73.6505C114.941 73.1929 117.429 71.7786 119.223 69.6592C121.017 67.5399 122.001 64.8528 122 62.0761V59.9239C122 54.193 117.852 49.2943 112.196 48.3495L108.761 47.7802C107.899 47.6224 107.094 47.2404 106.426 46.6726C105.758 46.1048 105.252 45.3712 104.958 44.5456C104.579 43.5348 104.166 42.5374 103.719 41.5551C103.342 40.763 103.181 39.8856 103.251 39.0113C103.322 38.1371 103.621 37.2968 104.119 36.575L106.146 33.7408C107.761 31.481 108.521 28.7215 108.292 25.9537C108.063 23.1858 106.859 20.5889 104.895 18.6253L103.375 17.105C101.411 15.1409 98.8142 13.9371 96.0463 13.708C93.2784 13.4788 90.519 14.2392 88.2592 15.8537L85.425 17.8808C84.7032 18.3791 83.8629 18.6785 82.9887 18.7488C82.1144 18.8191 81.237 18.6578 80.4449 18.2812C79.4627 17.8339 78.4652 17.4207 77.4544 17.0425C76.6288 16.7481 75.8952 16.2417 75.3274 15.5739C74.7596 14.9062 74.3776 14.1007 74.2198 13.2386L73.6505 9.79754C73.1929 7.05878 71.7786 4.57114 69.6592 2.77713C67.5399 0.983117 64.8528 -0.000942443 62.0761 6.77284e-07H59.9239ZM61 84.4615C67.2224 84.4615 73.1899 81.9897 77.5898 77.5898C81.9897 73.1899 84.4615 67.2224 84.4615 61C84.4615 54.7776 81.9897 48.8101 77.5898 44.4102C73.1899 40.0103 67.2224 37.5385 61 37.5385C54.7776 37.5385 48.8101 40.0103 44.4102 44.4102C40.0103 48.8101 37.5385 54.7776 37.5385 61C37.5385 67.2224 40.0103 73.1899 44.4102 77.5898C48.8101 81.9897 54.7776 84.4615 61 84.4615Z" fill="black"/>
<path d="M87.0165 34.9835C83.5343 31.5013 79.4003 28.7391 74.8506 26.8545C70.3009 24.97 65.4246 24 60.5 24C55.5754 24 50.6991 24.97 46.1494 26.8545C41.5997 28.7391 37.4657 31.5013 33.9835 34.9835L60.5 61.5L87.0165 34.9835Z" fill="#E68989"/>
<path d="M87.0165 88.0165C90.4987 84.5343 93.2609 80.4003 95.1455 75.8506C97.03 71.3009 98 66.4246 98 61.5C98 56.5754 97.03 51.6991 95.1455 47.1494C93.2609 42.5997 90.4987 38.4657 87.0165 34.9835L60.5 61.5L87.0165 88.0165Z" fill="#8499E3"/>
<path d="M33.9835 88.0165C37.4657 91.4987 41.5997 94.2609 46.1494 96.1455C50.6991 98.03 55.5754 99 60.5 99C65.4246 99 70.3009 98.03 74.8506 96.1455C79.4003 94.2609 83.5343 91.4987 87.0165 88.0165L60.5 61.5L33.9835 88.0165Z" fill="#EAFF94"/>
<path d="M33.9835 34.9835C30.5013 38.4657 27.7391 42.5997 25.8545 47.1494C23.97 51.6991 23 56.5754 23 61.5C23 66.4246 23.97 71.3009 25.8545 75.8506C27.7391 80.4003 30.5013 84.5343 33.9835 88.0165L60.5 61.5L33.9835 34.9835Z" fill="#9EE098"/>
<path d="M47.532 81.696C44.3227 81.696 41.3453 80.9807 38.6 79.55C35.8933 78.1193 33.7087 75.9927 32.046 73.17C30.3833 70.3087 29.552 66.732 29.552 62.44C29.552 58.2253 30.4027 54.6487 32.104 51.71C33.844 48.7327 36.0867 46.4707 38.832 44.924C41.616 43.3773 44.5933 42.604 47.764 42.604C50.2387 42.604 52.4813 43.1067 54.492 44.112C56.5027 45.1173 58.1653 46.2773 59.48 47.592L54.26 53.972C53.332 53.16 52.3653 52.5027 51.36 52C50.3933 51.4587 49.272 51.188 47.996 51.188C45.792 51.188 43.8587 52.1547 42.196 54.088C40.572 56.0213 39.76 58.6893 39.76 62.092C39.76 65.6493 40.4947 68.3753 41.964 70.27C43.472 72.1647 45.444 73.112 47.88 73.112C49.3493 73.112 50.6447 72.7833 51.766 72.126C52.926 71.4687 53.912 70.7147 54.724 69.864L59.944 76.128C56.7733 79.84 52.636 81.696 47.532 81.696ZM79.1941 81.696C75.9848 81.696 73.0074 80.9807 70.2621 79.55C67.5554 78.1193 65.3708 75.9927 63.7081 73.17C62.0454 70.3087 61.2141 66.732 61.2141 62.44C61.2141 58.2253 62.0648 54.6487 63.7661 51.71C65.5061 48.7327 67.7488 46.4707 70.4941 44.924C73.2781 43.3773 76.2554 42.604 79.4261 42.604C81.9008 42.604 84.1434 43.1067 86.1541 44.112C88.1648 45.1173 89.8274 46.2773 91.1421 47.592L85.9221 53.972C84.9941 53.16 84.0274 52.5027 83.0221 52C82.0554 51.4587 80.9341 51.188 79.6581 51.188C77.4541 51.188 75.5208 52.1547 73.8581 54.088C72.2341 56.0213 71.4221 58.6893 71.4221 62.092C71.4221 65.6493 72.1568 68.3753 73.6261 70.27C75.1341 72.1647 77.1061 73.112 79.5421 73.112C81.0114 73.112 82.3068 72.7833 83.4281 72.126C84.5881 71.4687 85.5741 70.7147 86.3861 69.864L91.6061 76.128C88.4354 79.84 84.2981 81.696 79.1941 81.696Z" fill="black"/>
</g>
<defs>
<clipPath id="clip0_9317_83">
<rect width="122" height="122" fill="white"/>
</clipPath>
</defs>
</svg>
